<?xml version="1.0" standalone="no"?>
<!DOCTYPE svg PUBLIC "-//W3C//DTD SVG 20010904//EN"
 "http://www.w3.org/TR/2001/REC-SVG-20010904/DTD/svg10.dtd">
<svg version="1.0" xmlns="http://www.w3.org/2000/svg"
 width="200.000000pt" height="200.000000pt" viewBox="0 0 200.000000 200.000000"
 preserveAspectRatio="xMidYMid meet">
<metadata>
Created by potrace 1.10, written by Peter Selinger 2001-2011
</metadata>
<g transform="translate(0.000000,200.000000) scale(0.100000,-0.100000)"
fill="#000000" stroke="none">
<path d="M704 1805 c-11 -27 25 -50 40 -26 4 5 -3 7 -14 4 -14 -4 -20 0 -20
12 0 12 6 16 20 12 11 -3 18 -1 14 4 -8 14 -34 11 -40 -6z"/>
<path d="M1220 1779 c-9 -21 -10 -33 -3 -40 8 -8 13 -7 18 2 5 8 4 10 -3 5
-15 -9 -15 9 -2 34 9 17 12 17 67 -3 32 -12 62 -26 66 -32 6 -6 7 -5 5 4 -3
10 -108 57 -134 61 -1 0 -7 -14 -14 -31z"/>
<path d="M1070 1781 c0 -4 10 -6 23 -4 25 5 41 -9 51 -42 3 -12 4 -9 2 8 -2
20 1 27 15 27 12 0 19 -9 22 -27 4 -25 4 -25 6 6 1 32 0 33 -29 29 -17 -3 -33
-1 -36 4 -7 11 -54 10 -54 -1z"/>
<path d="M1285 1691 c-9 -28 -14 -55 -10 -61 3 -5 1 -10 -6 -10 -7 0 -10 -3
-6 -6 3 -4 14 -3 24 0 14 6 15 9 4 15 -11 7 -11 17 3 57 9 26 14 49 12 51 -2
3 -11 -18 -21 -46z"/>
<path d="M620 1714 c-20 -11 -21 -14 -7 -14 10 0 15 -4 12 -10 -4 -6 1 -7 10
-3 10 3 21 0 26 -8 7 -11 9 -11 9 -1 0 8 -10 16 -21 19 -21 6 -21 7 -4 20 24
17 8 15 -25 -3z"/>
<path d="M1351 1716 c-1 -12 -6 -16 -17 -12 -9 3 -12 2 -9 -5 4 -6 13 -8 20
-5 20 7 25 -4 14 -28 -10 -20 -9 -20 5 -2 9 10 13 23 10 27 -7 11 7 11 25 0 7
-5 11 -13 8 -18 -3 -4 9 -9 26 -9 18 -1 26 1 20 3 -7 3 -15 4 -18 4 -3 -1 -14
8 -26 20 -11 11 -27 18 -34 15 -8 -3 -16 3 -18 12 -4 15 -5 14 -6 -2z"/>
<path d="M1130 1689 c0 -6 -7 -8 -16 -5 -14 5 -15 4 -4 -9 10 -12 10 -15 -2
-15 -8 0 -20 6 -28 13 -12 10 -12 9 -1 -5 7 -10 23 -17 35 -16 11 0 30 -3 41
-7 18 -7 17 -6 -2 9 -13 10 -20 23 -17 31 4 8 3 15 0 15 -3 0 -6 -5 -6 -11z"/>
<path d="M700 1685 c0 -6 7 -21 16 -34 14 -19 14 -25 3 -32 -9 -6 -10 -9 -2
-9 6 0 15 5 18 10 4 6 9 9 13 6 4 -2 16 0 27 5 20 9 20 9 0 8 -38 -2 -44 1
-59 29 -8 15 -15 22 -16 17z"/>
<path d="M517 1652 c-20 -22 -21 -32 -6 -32 7 0 18 -8 26 -17 13 -16 13 -16 4
4 -6 12 -16 23 -22 25 -7 2 -6 8 4 16 12 11 20 5 50 -36 33 -46 34 -49 16 -60
-15 -10 -19 -9 -19 2 0 8 -4 18 -10 21 -6 3 -7 -1 -4 -9 8 -21 -19 -21 -36 -1
-7 9 -27 25 -44 37 -20 13 -14 6 14 -20 25 -23 49 -41 54 -42 5 0 1 -9 -8 -19
-17 -18 -18 -18 -56 23 -22 22 -40 35 -40 29 0 -7 5 -13 11 -13 5 0 8 -4 5 -9
-3 -5 1 -24 10 -42 15 -33 14 -14 -2 26 -7 20 -7 20 14 1 12 -11 22 -25 22
-33 0 -20 14 -16 40 12 12 13 25 23 29 22 5 -1 94 47 110 60 3 2 -4 11 -14 21
-17 15 -17 15 -6 0 10 -14 9 -18 -8 -27 -34 -19 -48 -12 -78 34 -15 25 -31 45
-34 45 -3 0 -13 -8 -22 -18z"/>
<path d="M1444 1605 c-16 -30 -32 -55 -36 -55 -18 0 -17 24 1 54 12 18 21 37
21 42 0 5 -10 -7 -22 -26 -22 -37 -37 -27 -18 12 11 22 10 22 -4 4 -29 -36
-15 -75 34 -100 17 -8 28 -11 25 -7 -2 5 10 26 28 47 18 21 38 48 46 59 18 26
-26 -20 -61 -65 -35 -44 -36 -20 -3 39 14 24 24 46 22 48 -3 2 -17 -21 -33
-52z"/>
<path d="M415 1630 c-17 -19 -17 -21 0 -60 10 -22 20 -38 22 -36 2 2 -4 20
-13 39 -14 30 -15 39 -4 51 7 9 16 14 20 11 5 -3 11 -1 15 5 11 18 -22 10 -40
-10z"/>
<path d="M1558 1590 c31 -36 -3 -100 -54 -100 l-27 0 27 21 c14 11 31 30 37
42 6 12 -1 7 -16 -10 -15 -18 -31 -33 -36 -33 -17 0 -9 22 20 51 16 16 26 29
21 29 -4 0 -20 -15 -34 -32 -15 -18 -30 -38 -35 -44 -13 -16 31 -38 61 -31 22
6 24 4 20 -24 -5 -34 20 -69 50 -69 22 0 23 8 2 31 -9 10 -13 23 -9 29 4 6 13
2 25 -12 15 -19 22 -21 37 -12 42 26 16 95 -36 93 -20 -1 -22 -2 -6 -6 44 -10
46 -12 35 -33 -6 -11 -15 -18 -21 -15 -5 4 -7 11 -3 16 3 6 -3 5 -15 -3 -29
-18 -34 -38 -15 -59 14 -16 14 -19 3 -19 -35 0 -54 61 -27 88 20 20 21 87 1
102 -15 12 -16 12 -5 0z m98 -146 c-8 -21 -34 -17 -47 9 -11 20 -11 21 4 9 14
-12 18 -10 29 8 11 17 14 18 16 5 2 -9 1 -23 -2 -31z"/>
<path d="M1149 1533 c-5 -14 -8 -32 -5 -39 3 -7 0 -15 -7 -18 -7 -2 -2 -5 10
-5 12 -1 25 4 28 9 3 6 -1 10 -9 10 -19 0 -18 -3 -7 38 12 39 5 43 -10 5z"/>
<path d="M317 1532 c-10 -10 -17 -23 -17 -28 0 -4 7 2 16 15 14 19 23 22 53
17 25 -4 31 -2 21 4 -24 15 -55 12 -73 -8z"/>
<path d="M845 1514 c2 -29 7 -40 21 -42 11 -2 15 0 9 5 -5 4 -12 17 -13 28 -7
40 -19 46 -17 9z"/>
<path d="M895 1490 c3 -5 25 -10 48 -9 36 1 38 2 17 9 -36 12 -72 12 -65 0z"/>
<path d="M1055 1490 c-16 -7 -11 -9 22 -9 23 -1 45 4 48 9 8 12 -42 12 -70 0z"/>
<path d="M409 1458 c13 -15 28 -25 32 -22 20 12 7 -16 -13 -30 -12 -9 -18 -16
-12 -16 14 0 44 33 44 49 0 7 -6 11 -12 8 -7 -2 -24 5 -38 17 l-25 21 24 -27z"/>
<path d="M784 1455 c22 -17 84 -31 93 -21 4 3 -5 6 -18 6 -13 0 -37 7 -53 15
-36 19 -47 19 -22 0z"/>
<path d="M732 1453 c-13 -5 -7 -23 9 -23 6 0 7 4 4 10 -3 6 1 7 10 3 12 -4 13
-8 5 -13 -9 -5 -9 -9 -1 -14 6 -4 11 -3 11 2 0 6 10 8 23 5 17 -4 14 0 -11 16
-18 12 -33 21 -35 20 -1 0 -8 -3 -15 -6z"/>
<path d="M656 1410 c-38 -24 -51 -28 -62 -19 -9 7 -14 8 -14 1 0 -6 5 -12 12
-14 12 -4 -2 -41 -15 -39 -4 1 -7 -1 -7 -4 0 -2 -13 -17 -28 -33 -21 -21 -31
-26 -45 -19 -31 15 -28 3 4 -15 17 -10 27 -13 24 -8 -3 6 -1 10 4 10 6 0 10 3
8 8 -2 8 76 82 88 82 4 0 -13 -22 -39 -50 -25 -27 -46 -52 -46 -55 0 -9 105
106 106 117 1 4 2 13 3 19 0 5 6 7 11 4 6 -4 7 -11 4 -17 -4 -6 7 -2 25 8 17
10 27 20 21 22 -5 2 -10 8 -10 13 0 6 5 7 12 3 7 -4 8 -3 4 4 -9 15 -5 17 -60
-18z"/>
<path d="M1286 1424 c-14 -10 -22 -11 -27 -3 -3 6 -9 7 -12 2 -3 -5 7 -16 23
-25 27 -16 28 -15 25 4 -3 14 0 18 10 14 8 -3 17 0 21 6 4 6 3 8 -4 4 -5 -3
-12 -2 -14 3 -1 5 -12 3 -22 -5z"/>
<path d="M953 1402 c26 -16 37 -35 18 -29 -8 2 -11 -3 -11 -19 0 -4 8 0 17 7
15 12 16 12 10 -4 -4 -11 -3 -16 3 -12 6 3 10 11 10 16 0 13 -50 59 -64 59 -6
0 1 -8 17 -18z"/>
<path d="M1335 1410 c-5 -8 -4 -11 2 -7 6 4 14 0 17 -9 5 -12 2 -15 -11 -10
-10 3 -4 -4 12 -16 17 -12 47 -39 67 -60 21 -21 35 -30 31 -21 -4 13 1 11 19
-7 13 -14 23 -28 21 -32 -2 -5 0 -8 5 -8 6 0 10 -6 9 -12 -1 -41 3 -52 15 -40
8 8 9 15 3 20 -6 4 -11 14 -11 22 -3 32 -10 46 -32 61 -12 8 -20 18 -17 21 3
3 -15 24 -41 47 -26 23 -49 39 -52 36 -3 -2 -10 3 -17 12 -9 13 -14 13 -20 3z
m65 -46 c0 6 13 -3 30 -19 45 -43 25 -50 -25 -8 -24 20 -42 40 -39 45 3 5 12
1 20 -9 7 -10 14 -14 14 -9z"/>
<path d="M815 1400 c8 -13 55 -13 75 0 11 7 2 10 -33 10 -30 0 -46 -4 -42 -10z"/>
<path d="M1125 1400 c3 -5 21 -10 40 -10 19 0 37 5 40 10 4 6 -12 10 -40 10
-28 0 -44 -4 -40 -10z"/>
<path d="M776 1388 c5 -7 2 -9 -8 -6 -8 4 -22 -2 -31 -13 -9 -10 -13 -19 -7
-19 5 0 13 8 18 17 9 15 13 12 31 -18 12 -19 19 -39 16 -46 -2 -7 0 -15 5 -18
6 -4 10 -1 10 5 0 6 5 8 10 5 6 -3 10 -1 10 5 0 6 5 8 10 5 6 -3 10 -2 10 4 0
6 8 8 18 4 13 -5 14 -3 6 6 -9 10 -17 10 -32 2 -17 -9 -23 -6 -41 22 -11 17
-16 34 -11 35 12 4 3 22 -11 22 -6 0 -7 -5 -3 -12z"/>
<path d="M900 1392 c-19 -9 -19 -64 -1 -70 8 -3 11 0 7 6 -4 7 6 9 31 6 29 -4
34 -3 23 5 -8 6 -22 11 -31 11 -22 0 -32 27 -13 34 22 9 26 7 18 -6 -4 -7 -3
-8 5 -4 27 17 -7 32 -39 18z"/>
<path d="M1054 1377 c-20 -18 -23 -24 -11 -24 10 0 17 7 17 14 0 8 5 11 10 8
6 -3 10 -1 10 5 0 6 5 8 10 5 18 -11 10 -25 -22 -40 l-33 -15 38 6 c26 3 37 2
32 -5 -3 -6 -2 -11 4 -11 5 0 13 5 16 10 3 6 1 10 -5 10 -8 0 -10 9 -6 24 4
17 1 26 -10 30 -21 8 -20 9 -50 -17z"/>
<path d="M1215 1390 c-3 -5 -2 -10 4 -10 6 0 -1 -16 -14 -36 -26 -38 -32 -60
-15 -49 6 3 10 1 10 -5 0 -6 5 -8 11 -4 8 5 8 8 0 14 -9 5 -7 16 6 38 21 38
36 40 57 10 15 -21 15 -23 -9 -36 -27 -14 -32 -27 -12 -35 9 -4 9 -6 -1 -6 -7
-1 -10 -5 -7 -11 11 -17 24 -11 20 9 -2 11 5 27 16 37 21 19 26 6 7 -16 -11
-12 -10 -12 5 -1 18 14 15 49 -5 62 -5 3 -10 10 -11 15 -1 5 -5 8 -9 7 -5 -2
-8 1 -8 7 0 5 -7 6 -17 3 -11 -4 -14 -3 -9 5 4 7 3 12 -3 12 -5 0 -13 -4 -16
-10z"/>
<path d="M707 1373 c-18 -17 -6 -62 23 -86 16 -14 25 -28 20 -30 -6 -3 -5 -4
2 -3 7 2 13 8 13 13 0 6 3 15 7 18 12 13 -35 45 -49 33 -9 -7 -12 -1 -9 26 3
39 3 39 -7 29z"/>
<path d="M990 1323 c0 -5 -18 -9 -40 -10 -23 0 -64 -12 -93 -26 -29 -13 -61
-27 -71 -31 -19 -6 -19 -7 0 -21 10 -8 24 -14 29 -14 6 0 2 5 -9 11 -16 9 -11
14 45 38 35 15 79 30 98 34 28 5 32 4 27 -12 -5 -14 -3 -14 9 2 15 20 20 36
10 36 -3 0 -5 -3 -5 -7z"/>
<path d="M1044 1311 c4 -6 17 -11 29 -11 12 0 42 -9 66 -20 24 -11 46 -18 49
-15 7 6 -74 41 -117 50 -23 5 -31 4 -27 -4z"/>
<path d="M254 1253 c-4 -16 -14 -23 -31 -23 -13 0 -22 -4 -18 -10 7 -11 35 -3
50 14 7 9 14 7 27 -6 10 -9 13 -20 8 -23 -5 -3 -6 -13 -3 -23 5 -13 3 -14 -7
-5 -7 6 -19 9 -26 6 -9 -3 -14 2 -14 13 0 23 -6 16 -14 -19 -7 -28 -6 -28 18
-12 16 11 26 13 31 6 11 -19 28 -12 22 10 -3 12 0 22 9 26 20 8 17 23 -4 23
-11 0 -24 10 -30 23 l-11 22 -7 -22z"/>
<path d="M935 1260 c4 -7 2 -16 -5 -20 -14 -9 -5 -30 13 -30 8 0 8 3 -2 9 -20
13 3 23 35 15 20 -5 25 -3 22 7 -3 8 -13 14 -24 14 -10 0 -25 4 -33 9 -10 7
-12 6 -6 -4z"/>
<path d="M1067 1263 c-5 -4 -16 -8 -25 -8 -11 0 -17 -8 -16 -24 1 -21 -2 -22
-29 -17 -23 5 -28 3 -20 -5 15 -15 58 -7 58 11 0 8 9 15 20 15 11 0 19 -6 17
-13 -1 -8 2 -11 8 -7 6 3 8 11 5 16 -4 5 4 14 17 19 22 10 22 10 1 6 -12 -2
-23 0 -25 6 -2 5 -7 6 -11 1z"/>
<path d="M1725 1251 c-3 -11 -15 -21 -27 -23 -20 -3 -20 -3 3 -23 13 -11 19
-14 13 -6 -9 10 -8 17 5 30 14 14 18 14 31 1 9 -9 14 -26 12 -42 -3 -16 0 -28
6 -28 6 0 8 9 5 20 -4 13 1 26 13 35 18 14 17 14 -8 15 -18 0 -28 5 -28 14 0
24 -18 28 -25 7z"/>
<path d="M560 1221 c-18 -17 -31 -24 -34 -17 -3 6 -3 -7 0 -29 7 -48 26 -80
56 -96 17 -8 15 -4 -6 14 l-29 24 41 38 c23 20 39 42 35 48 -4 6 0 8 10 4 9
-3 19 -1 23 6 4 7 4 9 -1 5 -4 -4 -17 -2 -28 4 -16 8 -23 7 -34 -8 -8 -11 -17
-18 -21 -17 -4 0 -6 -3 -4 -8 1 -5 -3 -9 -9 -9 -5 0 -7 -4 -4 -10 3 -5 1 -18
-4 -27 -9 -15 -10 -12 -11 15 0 25 8 42 31 63 17 16 28 29 24 29 -3 0 -19 -13
-35 -29z m60 -26 c0 -1 -14 -14 -32 -31 -18 -16 -27 -22 -21 -14 6 8 9 22 8
31 -2 10 5 15 21 15 13 0 24 -1 24 -1z"/>
<path d="M1380 1220 c-12 -7 -11 -13 9 -34 13 -14 27 -23 32 -21 4 3 10 -4 14
-15 3 -11 11 -20 16 -20 6 0 7 6 3 13 -6 9 -5 9 7 0 13 -11 16 -8 16 16 0 25
-2 27 -15 15 -13 -13 -17 -13 -33 2 -10 9 -16 21 -12 27 3 5 10 3 15 -7 5 -9
14 -16 20 -16 6 0 3 9 -7 20 -15 16 -21 18 -33 7 -13 -10 -15 -9 -9 6 7 19 0
21 -23 7z"/>
<path d="M754 1185 c-3 -20 -4 -49 -1 -65 4 -16 2 -31 -4 -34 -5 -2 -4 -3 3
-2 7 1 12 21 13 52 0 27 4 57 9 67 5 10 4 17 -2 17 -6 0 -14 -16 -18 -35z"/>
<path d="M1236 1205 c5 -11 8 -42 8 -68 -1 -30 2 -43 7 -35 7 10 9 10 9 -1 0
-8 2 -12 5 -9 8 8 -14 111 -27 123 -8 7 -9 5 -2 -10z"/>
<path d="M780 1191 c-13 -25 -13 -61 0 -81 7 -11 8 -6 4 17 -3 17 -1 39 5 50
10 15 10 14 5 -9 -3 -15 -1 -35 5 -45 9 -15 10 -13 5 12 -4 20 -3 26 4 17 7
-11 10 -11 15 3 5 11 3 14 -5 9 -7 -5 -9 -2 -6 7 3 8 -1 20 -8 27 -11 10 -15
8 -24 -7z"/>
<path d="M1205 1196 c-9 -10 -11 -27 -6 -64 0 -7 6 -10 12 -7 6 4 8 20 4 38
-5 26 -4 29 5 14 6 -10 9 -32 5 -50 -5 -27 -4 -29 6 -14 11 19 5 82 -9 91 -4
2 -11 -1 -17 -8z"/>
<path d="M1265 1204 c6 -2 9 -20 7 -39 -2 -19 0 -35 6 -35 5 0 8 12 5 28 -3
23 -2 24 6 7 5 -11 10 -14 10 -7 1 21 -18 52 -32 51 -7 0 -8 -2 -2 -5z"/>
<path d="M880 1179 c0 -5 -5 -7 -12 -3 -7 4 -8 3 -4 -5 4 -6 16 -9 25 -6 24 7
78 -34 59 -46 -10 -7 -9 -9 5 -9 9 0 17 5 17 10 0 6 8 10 18 11 12 0 10 3 -8
11 -14 6 -29 10 -34 9 -5 -1 -6 5 -3 13 4 10 1 13 -9 9 -7 -3 -14 0 -14 6 0 6
-9 11 -20 11 -11 0 -20 -5 -20 -11z"/>
<path d="M1052 1165 c-6 -14 -17 -25 -24 -25 -6 0 -3 -7 8 -15 10 -8 26 -14
34 -14 11 0 10 3 -3 8 -10 4 -18 11 -18 16 1 12 30 15 37 4 6 -11 51 -12 57
-1 3 4 -9 7 -25 7 -17 0 -33 5 -35 11 -3 8 10 11 36 10 33 -2 38 0 30 11 -14
16 -55 17 -65 2 -5 -8 -8 -8 -14 0 -4 7 -11 2 -18 -14z"/>
<path d="M1494 1123 c1 -39 -2 -69 -7 -66 -5 3 -6 -5 -2 -17 4 -14 3 -20 -2
-17 -6 4 -15 -5 -22 -19 -6 -13 -32 -47 -58 -75 -27 -29 -38 -47 -27 -42 17 6
18 5 5 -13 -8 -10 6 1 32 25 25 24 44 48 42 52 -3 4 2 10 11 13 8 3 12 10 9
16 -3 5 0 10 7 10 9 0 9 3 -2 10 -13 8 -13 10 1 10 22 0 29 41 19 120 l-9 65
3 -72z"/>
<path d="M1528 1174 c-13 -12 -9 -112 4 -120 8 -5 10 3 6 27 -7 43 -1 59 20
59 10 0 24 5 32 10 11 7 6 8 -17 4 -24 -5 -32 -2 -35 11 -1 9 -6 13 -10 9z"/>
<path d="M508 1121 c-4 -30 -12 -59 -18 -65 -5 -5 -10 -18 -10 -27 0 -14 -10
-19 -42 -21 l-43 -3 53 -5 c38 -4 51 -2 48 7 -3 7 2 32 10 57 9 24 14 59 12
78 -3 27 -4 24 -10 -21z"/>
<path d="M427 1148 c2 -5 13 -8 24 -8 16 0 19 -7 19 -42 1 -35 3 -39 11 -25 6
9 9 32 7 49 -3 27 -7 31 -35 32 -17 1 -29 -2 -26 -6z"/>
<path d="M980 1109 c0 -6 -14 -9 -32 -7 -19 2 -32 -2 -34 -10 -1 -7 0 -8 2 -3
3 5 14 7 25 4 11 -3 32 0 45 8 20 10 29 10 44 1 23 -14 56 -16 64 -4 3 5 -8 7
-23 4 -16 -2 -32 1 -35 7 -9 14 -56 14 -56 0z"/>
<path d="M777 1080 c-20 -12 -24 -19 -15 -23 9 -4 8 -6 -4 -6 -10 -1 -33 -14
-51 -31 -31 -27 -34 -35 -32 -77 1 -44 3 -47 31 -49 16 -1 21 0 12 2 -22 7
-12 34 13 34 12 0 16 5 13 15 -4 8 -10 12 -15 9 -14 -8 -49 6 -49 20 0 23 49
59 97 72 40 11 43 13 18 13 l-30 1 30 20 c17 11 26 20 20 19 -5 0 -23 -9 -38
-19z"/>
<path d="M220 1071 c-13 -25 -13 -88 0 -96 6 -3 10 4 10 17 0 17 3 19 9 9 15
-24 30 19 19 57 -10 36 -23 41 -38 13z"/>
<path d="M516 1063 c-8 -19 11 -83 25 -83 5 0 8 -4 7 -9 -2 -5 6 -17 17 -26
11 -9 13 -14 5 -10 -22 9 79 -84 104 -96 13 -7 10 -1 -9 15 -16 14 -25 25 -19
26 5 0 -11 22 -37 50 -25 27 -52 63 -59 80 -7 16 -16 27 -22 24 -5 -3 -6 5 -2
20 7 29 0 35 -10 9z"/>
<path d="M1742 1048 c-11 -38 4 -81 19 -57 6 10 9 7 9 -11 0 -20 2 -22 10 -10
20 31 5 110 -20 110 -5 0 -13 -15 -18 -32z"/>
<path d="M803 1033 c-18 -7 5 -28 52 -47 59 -25 66 -17 8 9 -69 31 -68 38 2
11 30 -11 55 -26 55 -32 0 -7 10 -14 23 -18 31 -8 37 -7 37 4 0 6 -12 11 -27
11 -28 2 -28 2 -3 7 20 3 13 8 -40 27 -36 12 -72 24 -80 28 -8 3 -21 3 -27 0z"/>
<path d="M1170 1030 c-8 -6 -40 -18 -70 -27 -30 -9 -49 -18 -42 -20 7 -3 33 2
59 11 56 19 56 19 47 5 -4 -7 7 -4 24 7 22 12 28 20 19 26 -16 10 -19 10 -37
-2z"/>
<path d="M1510 1025 c0 -8 3 -15 8 -15 4 0 7 -30 7 -67 0 -41 4 -68 12 -70 8
-3 9 6 4 29 -10 51 -2 96 17 101 12 3 10 5 -5 6 -13 1 -23 7 -23 16 0 8 -4 15
-10 15 -5 0 -10 -7 -10 -15z"/>
<path d="M969 1006 c38 -52 17 -133 -40 -151 -11 -4 -18 -9 -15 -12 2 -3 18 3
34 13 57 33 69 104 26 151 l-26 28 21 -29z"/>
<path d="M272 997 c-12 -13 -22 -32 -22 -43 0 -14 2 -16 9 -5 5 7 11 9 14 4 3
-5 2 -15 -4 -23 -5 -8 -8 -24 -8 -35 0 -11 3 -14 6 -7 2 6 9 9 15 6 6 -4 14 0
19 7 12 19 11 62 0 54 -6 -3 -7 9 -4 30 7 41 4 43 -25 12z"/>
<path d="M1207 996 c-15 -14 -27 -30 -27 -36 0 -5 14 3 32 20 17 17 29 32 26
35 -3 3 -17 -6 -31 -19z"/>
<path d="M717 1004 c-8 -8 3 -35 13 -29 4 2 12 -7 18 -21 10 -20 9 -26 -3 -30
-8 -4 -12 -10 -9 -15 6 -11 24 -12 23 -1 -3 19 2 25 11 12 8 -13 10 -13 10 1
0 9 -9 26 -20 39 -11 13 -20 29 -20 37 0 13 -12 17 -23 7z"/>
<path d="M1267 968 c-2 -24 -7 -54 -11 -68 -5 -19 -4 -20 2 -5 5 12 19 20 37
21 26 1 27 0 10 -12 -10 -8 -14 -14 -8 -14 7 0 15 5 18 10 4 6 11 8 16 5 5 -3
6 1 3 10 -8 21 -44 40 -44 24 0 -7 -2 -10 -5 -7 -3 3 -1 16 4 29 8 21 10 22
16 7 4 -10 12 -15 17 -12 5 4 -2 14 -16 23 -14 10 -23 21 -19 24 3 4 2 7 -4 7
-6 0 -13 -19 -16 -42z"/>
<path d="M1700 987 c0 -23 29 -61 31 -41 0 5 7 -4 14 -21 8 -16 14 -25 15 -18
0 6 8 9 19 6 14 -3 21 3 30 28 15 43 7 48 -28 15 l-28 -27 -6 30 c-4 16 -15
35 -27 41 -18 9 -20 8 -20 -13z"/>
<path d="M188 955 c5 -28 12 -34 42 -40 25 -5 25 6 -1 39 -27 34 -48 34 -41 1z"/>
<path d="M470 932 c0 -49 -1 -50 -37 -61 l-38 -10 41 5 c38 5 42 3 48 -21 4
-16 11 -23 18 -19 8 5 9 9 1 11 -6 2 -8 13 -5 25 3 14 1 19 -6 14 -8 -5 -9 8
-5 42 3 32 1 52 -6 56 -8 5 -11 -8 -11 -42z"/>
<path d="M1063 973 c-18 -2 -33 -9 -33 -14 0 -11 54 -3 80 12 17 9 15 10 -47
2z"/>
<path d="M1232 928 c-1 -32 -6 -58 -11 -58 -5 0 -11 -7 -14 -14 -4 -10 -1 -13
9 -9 19 7 26 39 21 94 -3 40 -4 39 -5 -13z"/>
<path d="M1690 926 c0 -21 30 -60 30 -40 0 5 5 2 10 -6 8 -13 10 -12 10 3 0
25 -16 53 -35 61 -11 4 -15 -1 -15 -18z"/>
<path d="M1071 908 c-1 -43 -11 -48 -35 -15 -15 20 -16 20 -7 1 6 -12 21 -29
35 -38 30 -19 48 -22 21 -3 -17 13 -17 14 1 28 10 8 26 23 34 33 15 19 14 19
-12 2 -26 -17 -27 -17 -31 6 -3 15 -5 10 -6 -14z"/>
<path d="M790 924 c0 -6 11 -20 25 -30 l25 -19 -22 -7 c-18 -6 -16 -7 10 -4
17 1 32 -1 32 -6 0 -4 -15 -9 -32 -9 -26 -1 -23 -3 17 -10 27 -4 51 -6 54 -3
2 2 -3 4 -13 4 -9 0 -14 5 -11 10 4 6 10 8 15 5 5 -3 11 -1 15 5 3 5 -2 10
-12 10 -20 0 -84 36 -95 54 -6 8 -8 8 -8 0z"/>
<path d="M190 896 c0 -21 42 -64 48 -48 2 7 8 9 14 6 6 -4 9 -1 6 7 -3 8 -19
22 -36 32 -28 17 -32 17 -32 3z"/>
<path d="M506 890 c17 -70 104 -198 125 -184 5 3 9 1 9 -5 0 -6 12 -18 26 -27
24 -16 26 -16 47 5 22 22 22 22 3 37 -16 11 -17 14 -4 14 9 0 19 7 22 16 5 14
9 14 22 3 14 -12 14 -14 -2 -26 -10 -7 -16 -15 -13 -17 2 -2 13 2 23 10 15 10
16 17 8 27 -9 10 -8 17 1 27 10 12 9 12 -5 2 -10 -8 -19 -9 -22 -3 -4 5 3 13
15 16 17 6 19 9 8 16 -8 5 -18 9 -24 9 -5 0 -4 -4 3 -9 11 -7 11 -9 -2 -14 -9
-4 -16 -2 -16 4 0 6 -5 7 -11 3 -8 -5 -8 -9 1 -14 8 -5 7 -12 -5 -24 -21 -21
-24 -20 -18 3 3 10 0 22 -6 25 -19 12 -12 -43 7 -62 15 -15 16 -21 5 -30 -19
-18 -30 -12 -90 47 -33 32 -67 78 -84 115 -16 33 -27 50 -23 36z"/>
<path d="M293 876 c-25 -32 -28 -42 -13 -51 6 -3 10 -1 10 5 0 6 5 8 10 5 13
-8 23 17 18 47 -3 23 -3 22 -25 -6z"/>
<path d="M1487 858 c-17 -43 -110 -162 -119 -152 -3 2 -17 -7 -31 -20 -14 -13
-29 -21 -33 -17 -4 3 -4 0 1 -8 7 -12 10 -11 20 2 7 9 15 14 18 11 3 -4 31 17
61 46 53 50 112 148 104 172 -2 6 -12 -9 -21 -34z"/>
<path d="M1766 879 c-24 -19 -38 -48 -16 -34 6 3 10 2 10 -4 0 -18 27 -1 39
25 19 42 9 46 -33 13z"/>
<path d="M1680 862 c0 -32 15 -51 23 -30 3 7 6 4 6 -6 1 -15 4 -17 12 -9 12
12 1 41 -25 63 -14 11 -16 8 -16 -18z"/>
<path d="M210 827 c0 -20 37 -50 50 -42 6 4 20 -1 31 -11 11 -10 19 -12 19 -6
0 7 6 11 12 10 16 -4 23 41 10 54 -7 7 -14 2 -22 -13 -7 -13 -14 -26 -16 -28
-2 -2 -17 8 -34 23 -35 29 -50 33 -50 13z"/>
<path d="M1291 821 c-11 -7 -10 -10 6 -15 15 -5 19 -13 15 -38 l-5 -32 -25 30
c-13 16 -21 23 -17 15 6 -10 2 -11 -15 -6 -15 5 -20 4 -16 -4 4 -6 12 -11 18
-11 5 0 21 -8 34 -19 23 -18 23 -19 3 -24 -12 -3 -18 -10 -14 -17 5 -8 13 -6
26 6 10 9 16 21 13 25 -3 5 -1 9 4 9 15 0 12 61 -4 67 -7 3 -11 9 -8 14 7 11
3 11 -15 0z"/>
<path d="M1660 801 c0 -31 15 -50 23 -29 3 7 6 4 6 -6 1 -18 2 -18 25 3 17 16
25 19 28 9 4 -10 10 -8 27 6 19 17 29 46 16 46 -14 0 -65 -32 -65 -40 0 -18
-15 -11 -25 12 -16 34 -35 34 -35 -1z"/>
<path d="M1492 805 c12 -12 -174 -189 -187 -177 -3 3 -5 0 -5 -7 0 -7 -4 -10
-9 -7 -5 4 -16 3 -25 0 -14 -5 -13 -10 4 -43 10 -21 26 -44 36 -52 16 -13 16
-12 1 18 -9 17 -21 35 -27 38 -16 10 -12 35 4 29 8 -3 23 3 34 14 11 11 23 18
26 15 3 -4 6 -2 6 4 0 17 34 11 58 -10 26 -24 30 -12 5 15 -16 18 -14 21 27
63 24 24 48 41 53 38 6 -3 7 -1 3 5 -4 6 -2 20 4 31 7 15 7 22 -2 27 -7 4 -10
4 -6 -1z"/>
<path d="M330 756 c-15 -30 -7 -58 15 -50 9 4 15 19 15 40 0 40 -11 44 -30 10z"/>
<path d="M500 748 l-35 -30 32 16 c30 15 68 13 58 -4 -2 -4 7 -18 20 -30 14
-13 25 -19 25 -14 0 5 5 2 10 -6 6 -10 3 -21 -13 -38 l-22 -24 36 21 c32 19
37 20 43 6 3 -9 9 -14 13 -12 5 3 6 -48 5 -114 -3 -112 -3 -119 15 -112 16 6
16 5 4 -10 -11 -14 -11 -18 3 -23 9 -3 13 -11 9 -18 -3 -6 -3 -8 1 -5 4 4 20
-7 37 -23 26 -26 32 -28 46 -17 15 12 16 12 10 -3 -7 -20 8 -25 19 -7 3 6 -3
21 -15 32 -13 13 -21 16 -21 9 0 -7 -5 -10 -10 -7 -6 4 -8 10 -6 14 3 4 -4 13
-16 20 -11 7 -17 8 -13 2 3 -6 4 -11 2 -11 -3 0 -14 18 -26 40 -15 30 -21 59
-21 108 1 61 2 65 15 48 13 -17 15 -17 15 -4 0 9 -4 20 -10 23 -5 3 -13 20
-18 38 -5 18 -12 31 -16 29 -4 -2 -13 3 -19 11 -7 8 -37 36 -67 63 -30 26 -53
50 -52 52 2 2 2 5 0 7 -1 2 -19 -10 -38 -27z"/>
<path d="M230 762 c0 -5 9 -17 20 -27 11 -10 17 -22 14 -27 -3 -5 2 -18 12
-30 10 -11 19 -27 19 -36 0 -21 47 -47 70 -39 23 9 3 35 -30 39 -18 2 -22 7
-16 17 7 10 13 11 30 2 15 -8 21 -9 21 -1 0 6 4 9 9 5 16 -10 22 12 10 42
l-11 28 -16 -30 c-17 -30 -17 -30 -48 -15 -17 9 -29 21 -26 28 2 7 8 9 14 6 6
-4 8 -1 6 7 -3 8 -12 13 -21 13 -9 -1 -15 2 -12 6 3 4 -2 11 -11 14 -22 8 -34
8 -34 -2z"/>
<path d="M791 761 c-5 -4 -7 -12 -3 -18 5 -8 15 -8 37 1 l30 13 -27 5 c-15 3
-31 2 -37 -1z"/>
<path d="M1638 753 c-6 -25 2 -44 14 -37 6 4 8 2 4 -4 -3 -6 -2 -13 4 -17 16
-10 24 24 12 51 -14 28 -28 31 -34 7z"/>
<path d="M958 753 c17 -2 32 -10 32 -16 0 -9 2 -9 8 0 4 6 28 13 52 16 25 2 7
4 -40 4 -47 0 -70 -2 -52 -4z"/>
<path d="M1165 742 c6 -33 29 -62 52 -68 26 -7 61 10 44 20 -6 4 -11 3 -11 -2
0 -17 -40 0 -52 22 -7 11 -12 25 -13 30 0 5 -5 11 -12 13 -7 3 -11 -3 -8 -15z"/>
<path d="M1712 744 c-28 -19 -28 -29 0 -31 22 -2 58 22 58 39 0 13 -34 9 -58
-8z"/>
<path d="M851 700 c0 -25 3 -51 8 -59 5 -8 7 5 4 35 -6 68 -11 77 -12 24z"/>
<path d="M1013 723 c-32 -16 -56 -47 -27 -36 7 3 14 10 14 16 0 6 3 7 6 4 4
-3 15 -2 24 3 13 7 21 5 30 -5 6 -7 19 -11 27 -8 11 4 14 2 9 -5 -10 -17 42
-28 57 -12 10 10 6 11 -16 8 -24 -5 -29 -2 -34 23 -4 23 -11 29 -32 28 -14 0
-40 -7 -58 -16z"/>
<path d="M1610 699 c-13 -23 -6 -54 10 -44 5 3 10 0 10 -7 1 -8 4 -7 10 4 7
11 7 25 0 42 -12 31 -16 32 -30 5z"/>
<path d="M1700 693 c-31 -12 -41 -25 -29 -39 9 -11 7 -15 -7 -20 -11 -3 -26
-9 -35 -14 -12 -6 -18 0 -28 24 l-12 31 -15 -27 c-8 -16 -19 -28 -25 -28 -5 0
-14 -11 -21 -24 -8 -20 -8 -28 4 -40 20 -19 28 -11 28 27 0 17 3 27 7 24 3 -4
12 -2 20 5 11 9 12 7 7 -8 -4 -12 -3 -15 3 -7 6 8 14 9 23 3 8 -6 22 -10 31
-10 21 0 66 43 50 48 -7 2 -1 12 14 24 38 30 30 47 -15 31z"/>
<path d="M913 673 c-18 -9 -33 -21 -33 -26 0 -5 3 -7 8 -5 4 3 22 10 40 17 17
7 32 17 32 22 0 12 -9 11 -47 -8z"/>
<path d="M394 644 c-4 -15 -2 -30 6 -37 10 -9 11 -9 6 0 -4 8 1 11 14 10 15
-1 20 -8 20 -27 0 -35 9 -43 28 -24 12 13 13 19 2 40 -8 13 -19 24 -26 24 -6
0 -14 9 -17 20 -7 28 -25 25 -33 -6z"/>
<path d="M817 622 c-31 -19 -37 -38 -7 -22 11 6 20 7 20 3 0 -4 5 0 11 10 15
26 8 28 -24 9z"/>
<path d="M755 579 c-14 -15 -15 -18 -4 -14 12 5 15 -1 14 -24 -2 -38 18 -46
41 -18 10 12 12 16 4 10 -20 -18 -35 -16 -20 2 7 8 9 15 4 15 -5 0 2 9 16 20
20 16 22 20 8 20 -10 0 -18 -6 -18 -12 -1 -8 -6 -6 -14 4 -12 17 -14 17 -31
-3z"/>
<path d="M917 591 c-10 -4 29 -7 88 -7 59 0 98 3 88 7 -23 10 -153 10 -176 0z"/>
<path d="M342 578 c3 -7 17 -19 31 -26 23 -11 30 -11 43 2 14 14 13 17 -11 26
-36 14 -68 13 -63 -2z"/>
<path d="M487 573 c-12 -11 -8 -30 13 -54 16 -19 19 -20 13 -5 -4 13 -3 17 5
12 15 -9 15 9 2 35 -11 20 -22 24 -33 12z"/>
<path d="M835 570 c-3 -5 1 -10 9 -10 18 0 22 -40 6 -56 -8 -8 -7 -14 2 -22
10 -8 20 -5 38 10 16 13 19 18 8 14 -54 -18 -54 -18 -36 -7 10 7 14 19 11 31
-4 16 0 20 18 20 13 0 31 5 39 11 11 8 4 9 -28 5 -29 -4 -41 -3 -37 4 3 5 -1
10 -9 10 -8 0 -18 -4 -21 -10z"/>
<path d="M1486 559 c-19 -27 -21 -54 -4 -43 8 5 9 2 4 -11 -5 -14 -4 -16 8 -6
17 14 26 55 16 71 -5 8 -13 5 -24 -11z"/>
<path d="M1584 565 c-13 -10 -14 -13 -3 -10 10 4 16 0 16 -10 0 -10 -10 -15
-30 -15 -21 0 -28 -4 -24 -14 3 -8 1 -17 -6 -20 -7 -2 -2 -5 11 -5 30 -1 62
16 62 33 0 7 11 18 25 24 14 6 25 16 25 22 0 15 -54 12 -76 -5z"/>
<path d="M1080 560 c8 -5 23 -10 32 -10 10 0 22 -16 31 -42 9 -24 16 -35 16
-25 1 10 -6 33 -13 52 -13 30 -20 35 -48 35 -25 0 -29 -3 -18 -10z"/>
<path d="M970 551 c-25 -7 -25 -7 5 -12 17 -2 44 -2 60 1 30 6 30 6 5 13 -29
8 -36 8 -70 -2z"/>
<path d="M402 534 c-21 -10 7 -34 39 -34 25 0 47 15 37 26 -8 7 -63 13 -76 8z"/>
<path d="M540 518 c0 -13 5 -30 10 -38 8 -13 11 -13 25 0 13 14 13 18 -1 38
-20 28 -34 28 -34 0z"/>
<path d="M1432 517 c-31 -33 -16 -77 16 -45 9 9 12 9 12 0 0 -6 9 -16 20 -22
15 -8 27 -6 52 7 l33 18 -29 3 c-16 2 -33 -1 -39 -7 -6 -6 -16 -11 -21 -11 -6
0 -4 5 4 10 13 8 13 10 -2 10 -11 0 -18 10 -20 31 l-3 31 -23 -25z"/>
<path d="M1001 503 c0 -13 -5 -23 -10 -23 -14 0 -23 -32 -12 -43 7 -7 17 -4
31 8 11 10 16 21 11 24 -5 3 -11 17 -14 31 -4 23 -4 23 -6 3z"/>
<path d="M445 481 c-3 -5 11 -15 30 -21 28 -9 39 -9 50 0 8 7 12 16 9 21 -7
12 -81 12 -89 0z"/>
<path d="M935 470 c-10 -11 -16 -20 -12 -20 3 0 13 -3 21 -6 12 -5 15 -2 10
10 -3 9 -1 16 5 16 6 0 11 5 11 10 0 16 -15 12 -35 -10z"/>
<path d="M743 464 c-3 -8 -1 -29 5 -47 10 -32 10 -31 11 16 1 48 -5 60 -16 31z"/>
<path d="M515 440 c-7 -11 41 -33 58 -27 6 2 11 11 13 20 2 13 -5 17 -31 17
-19 0 -37 -5 -40 -10z"/>
<path d="M1061 436 c-9 -10 -8 -16 4 -26 13 -11 18 -10 29 6 11 14 11 21 3 26
-17 11 -23 10 -36 -6z"/>
<path d="M1408 445 c-15 -15 6 -35 37 -35 29 0 54 14 44 25 -9 8 -75 16 -81
10z"/>
<path d="M1111 416 c-9 -10 -7 -16 5 -27 13 -11 17 -10 25 2 14 23 10 33 -8
18 -15 -12 -16 -12 -10 4 8 21 3 22 -12 3z"/>
<path d="M1160 410 c-7 -16 -6 -49 1 -44 5 3 9 0 9 -5 0 -6 5 -11 12 -11 6 0
3 10 -8 21 -19 22 -19 22 3 10 16 -8 24 -8 29 1 4 7 3 8 -4 4 -7 -4 -12 -2
-12 4 0 6 -4 9 -9 6 -5 -4 -12 0 -14 6 -3 7 -6 11 -7 8z"/>
<path d="M1213 368 c-9 -10 -8 -18 3 -32 7 -11 15 -18 17 -15 1 2 9 13 17 24
8 11 10 17 6 13 -5 -4 -14 -1 -21 8 -9 13 -13 14 -22 2z"/>
<path d="M1257 333 c-10 -9 -7 -74 3 -98 6 -14 9 -2 9 43 1 62 0 68 -12 55z"/>
<path d="M859 289 c-10 -19 -9 -20 11 -14 16 5 20 4 15 -5 -6 -9 1 -10 25 -5
24 5 31 4 25 -5 -6 -9 1 -10 26 -5 25 4 30 3 19 -4 -19 -14 -5 -14 20 -1 13 7
21 7 25 0 3 -5 -2 -10 -12 -10 -11 -1 -4 -7 17 -17 22 -10 70 -16 130 -18 63
-1 69 -1 18 2 -43 2 -78 8 -78 12 0 5 -9 7 -19 4 -11 -3 -28 0 -38 7 -16 10
-15 11 10 7 15 -2 27 -2 27 0 0 4 -48 24 -65 27 -5 1 -16 5 -23 10 -7 4 -16 5
-19 2 -3 -3 -11 -2 -17 3 -21 16 -47 21 -41 8 4 -6 0 -4 -8 6 -19 23 -34 22
-48 -4z"/>
</g>
</svg>
